<svg width="48" height="49" viewBox="0 0 48 49" fill="none" xmlns="http://www.w3.org/2000/svg">
<path d="M18 10.5H14C12.9391 10.5 11.9217 10.9214 11.1716 11.6716C10.4214 12.4217 10 13.4391 10 14.5V38.5C10 39.5609 10.4214 40.5783 11.1716 41.3284C11.9217 42.0786 12.9391 42.5 14 42.5H34C35.0609 42.5 36.0783 42.0786 36.8284 41.3284C37.5786 40.5783 38 39.5609 38 38.5V14.5C38 13.4391 37.5786 12.4217 36.8284 11.6716C36.0783 10.9214 35.0609 10.5 34 10.5H30M18 10.5C18 9.43913 18.4214 8.42172 19.1716 7.67157C19.9217 6.92143 20.9391 6.5 22 6.5H26C27.0609 6.5 28.0783 6.92143 28.8284 7.67157C29.5786 8.42172 30 9.43913 30 10.5M18 10.5C18 11.5609 18.4214 12.5783 19.1716 13.3284C19.9217 14.0786 20.9391 14.5 22 14.5H26C27.0609 14.5 28.0783 14.0786 28.8284 13.3284C29.5786 12.5783 30 11.5609 30 10.5M18 28.5L22 32.5L30 24.5" stroke="white" stroke-width="3" stroke-linecap="round" stroke-linejoin="round"/>
</svg>
