<svg width="36" height="36" viewBox="0 0 36 36" fill="none" xmlns="http://www.w3.org/2000/svg">
<path d="M7.99999 22C5.91845 23.1751 4.23529 24.9452 3.1663 27.0832C2.0973 29.2211 1.69118 31.6297 1.99999 34C4.3703 34.3088 6.77884 33.9027 8.91683 32.8337C11.0548 31.7647 12.8248 30.0815 14 28M2 20C5.56619 20.4238 8.8861 22.0351 11.4255 24.5745C13.9649 27.1139 15.5762 30.4338 16 34C17.7678 32.9808 19.2466 31.5277 20.2965 29.7779C21.3463 28.0281 21.9326 26.0395 22 24C25.3582 22.8186 28.2907 20.668 30.4267 17.82C32.5627 14.9721 33.8062 11.5547 34 8C34 6.4087 33.3679 4.88258 32.2426 3.75736C31.1174 2.63214 29.5913 2 28 2C24.4453 2.19382 21.0279 3.43733 18.18 5.5733C15.332 7.70928 13.1814 10.6418 12 14C9.96053 14.0674 7.97192 14.6537 6.22213 15.7035C4.47234 16.7534 3.01918 18.2322 2 20ZM22 12C22 12.5304 22.2107 13.0391 22.5858 13.4142C22.9609 13.7893 23.4696 14 24 14C24.5304 14 25.0391 13.7893 25.4142 13.4142C25.7893 13.0391 26 12.5304 26 12C26 11.4696 25.7893 10.9609 25.4142 10.5858C25.0391 10.2107 24.5304 10 24 10C23.4696 10 22.9609 10.2107 22.5858 10.5858C22.2107 10.9609 22 11.4696 22 12Z" stroke="#E22A86" stroke-width="3" stroke-linecap="round" stroke-linejoin="round"/>
</svg>
