<svg width="40" height="39" viewBox="0 0 40 39" fill="none" xmlns="http://www.w3.org/2000/svg">
<path d="M24 25.5V29.5C24 30.0304 23.7893 30.5391 23.4142 30.9142C23.0391 31.2893 22.5304 31.5 22 31.5H8L2 37.5V17.5C2 16.9696 2.21071 16.4609 2.58579 16.0858C2.96086 15.7107 3.46957 15.5 4 15.5H8M38 23.5L32 17.5H18C17.4696 17.5 16.9609 17.2893 16.5858 16.9142C16.2107 16.5391 16 16.0304 16 15.5V3.5C16 2.96957 16.2107 2.46086 16.5858 2.08579C16.9609 1.71071 17.4696 1.5 18 1.5H36C36.5304 1.5 37.0391 1.71071 37.4142 2.08579C37.7893 2.46086 38 2.96957 38 3.5V23.5Z" stroke="white" stroke-width="3" stroke-linecap="round" stroke-linejoin="round"/>
</svg>
